<svg width="36" height="36" viewBox="0 0 36 36" fill="none" xmlns="http://www.w3.org/2000/svg">
<rect width="35.4482" height="35.4482" rx="17.7241" fill="#FFF9F0"/>
<path fill-rule="evenodd" clip-rule="evenodd" d="M17.7241 11.8965C16.8484 11.8965 16.0086 12.2443 15.3894 12.8635C14.7702 13.4827 14.4224 14.3226 14.4224 15.1982C14.4224 16.0739 14.7702 16.9137 15.3894 17.5329C16.0086 18.1521 16.8484 18.5 17.7241 18.5C18.5998 18.5 19.4396 18.1521 20.0588 17.5329C20.678 16.9137 21.0259 16.0739 21.0259 15.1982C21.0259 14.3226 20.678 13.4827 20.0588 12.8635C19.4396 12.2443 18.5998 11.8965 17.7241 11.8965ZM16.0732 19.3254C15.1976 19.3254 14.3577 19.6733 13.7385 20.2925C13.1193 20.9117 12.7715 21.7515 12.7715 22.6272V23.4526C12.7715 23.8904 12.9454 24.3103 13.255 24.6199C13.5646 24.9295 13.9845 25.1035 14.4224 25.1035H21.0259C21.4637 25.1035 21.8836 24.9295 22.1932 24.6199C22.5028 24.3103 22.6767 23.8904 22.6767 23.4526V22.6272C22.6767 21.7515 22.3289 20.9117 21.7097 20.2925C21.0905 19.6733 20.2507 19.3254 19.375 19.3254H16.0732Z" fill="#E1B068"/>
</svg>
