<svg width="19" height="19" viewBox="0 0 19 19" fill="none" xmlns="http://www.w3.org/2000/svg">
<path d="M0.0916666 3.66667C0.302986 2.63142 0.8655 1.70097 1.68401 1.0328C2.50251 0.364635 3.52674 -0.000215555 4.58333 9.55426e-08H13.75C14.8066 -0.000215555 15.8308 0.364635 16.6493 1.0328C17.4678 1.70097 18.0303 2.63142 18.2417 3.66667H0.0916666ZM0 5.5V13.75C0 14.9656 0.482886 16.1314 1.34243 16.9909C2.20197 17.8504 3.36776 18.3333 4.58333 18.3333H13.75C14.9656 18.3333 16.1314 17.8504 16.9909 16.9909C17.8504 16.1314 18.3333 14.9656 18.3333 13.75V5.5H0ZM3.66667 8.25C3.66667 8.00688 3.76324 7.77373 3.93515 7.60182C4.10706 7.42991 4.34022 7.33333 4.58333 7.33333C4.82645 7.33333 5.05961 7.42991 5.23151 7.60182C5.40342 7.77373 5.5 8.00688 5.5 8.25C5.5 8.49312 5.40342 8.72627 5.23151 8.89818C5.05961 9.07009 4.82645 9.16667 4.58333 9.16667C4.34022 9.16667 4.10706 9.07009 3.93515 8.89818C3.76324 8.72627 3.66667 8.49312 3.66667 8.25ZM3.66667 11.9167C3.66667 11.6736 3.76324 11.4404 3.93515 11.2685C4.10706 11.0966 4.34022 11 4.58333 11C4.82645 11 5.05961 11.0966 5.23151 11.2685C5.40342 11.4404 5.5 11.6736 5.5 11.9167C5.5 12.1598 5.40342 12.3929 5.23151 12.5648C5.05961 12.7368 4.82645 12.8333 4.58333 12.8333C4.34022 12.8333 4.10706 12.7368 3.93515 12.5648C3.76324 12.3929 3.66667 12.1598 3.66667 11.9167ZM8.25 7.33333C8.49312 7.33333 8.72627 7.42991 8.89818 7.60182C9.07009 7.77373 9.16667 8.00688 9.16667 8.25C9.16667 8.49312 9.07009 8.72627 8.89818 8.89818C8.72627 9.07009 8.49312 9.16667 8.25 9.16667C8.00688 9.16667 7.77373 9.07009 7.60182 8.89818C7.42991 8.72627 7.33333 8.49312 7.33333 8.25C7.33333 8.00688 7.42991 7.77373 7.60182 7.60182C7.77373 7.42991 8.00688 7.33333 8.25 7.33333ZM7.33333 11.9167C7.33333 11.6736 7.42991 11.4404 7.60182 11.2685C7.77373 11.0966 8.00688 11 8.25 11C8.49312 11 8.72627 11.0966 8.89818 11.2685C9.07009 11.4404 9.16667 11.6736 9.16667 11.9167C9.16667 12.1598 9.07009 12.3929 8.89818 12.5648C8.72627 12.7368 8.49312 12.8333 8.25 12.8333C8.00688 12.8333 7.77373 12.7368 7.60182 12.5648C7.42991 12.3929 7.33333 12.1598 7.33333 11.9167ZM11.9167 7.33333C12.1598 7.33333 12.3929 7.42991 12.5648 7.60182C12.7368 7.77373 12.8333 8.00688 12.8333 8.25C12.8333 8.49312 12.7368 8.72627 12.5648 8.89818C12.3929 9.07009 12.1598 9.16667 11.9167 9.16667C11.6736 9.16667 11.4404 9.07009 11.2685 8.89818C11.0966 8.72627 11 8.49312 11 8.25C11 8.00688 11.0966 7.77373 11.2685 7.60182C11.4404 7.42991 11.6736 7.33333 11.9167 7.33333Z" fill="#6B6B6B"/>
</svg>
